<svg width="203" height="40" viewBox="0 0 203 40" fill="none" xmlns="http://www.w3.org/2000/svg">
<circle cx="20" cy="20" r="20" fill="#F0F3FF"/>
<path d="M30 22C30 23.3132 29.7413 24.6136 29.2388 25.8268C28.7362 27.0401 27.9997 28.1425 27.0711 29.0711C26.1425 29.9997 25.0401 30.7362 23.8268 31.2388C22.6136 31.7413 21.3132 32 20 32C18.6868 32 17.3864 31.7413 16.1732 31.2388C14.9599 30.7362 13.8575 29.9997 12.9289 29.0711C12.0003 28.1425 11.2638 27.0401 10.7612 25.8268C10.2587 24.6136 10 23.3132 10 22L20 22H30Z" fill="#335DFF"/>
<path d="M75.1648 17.3693H70.9034C70.8466 16.9318 70.7301 16.5369 70.554 16.1847C70.3778 15.8324 70.1449 15.5312 69.8551 15.2812C69.5653 15.0312 69.2216 14.8409 68.8239 14.7102C68.4318 14.5739 67.9972 14.5057 67.5199 14.5057C66.6733 14.5057 65.9432 14.7131 65.3295 15.1278C64.7216 15.5426 64.2528 16.142 63.9233 16.9261C63.5994 17.7102 63.4375 18.6591 63.4375 19.7727C63.4375 20.9318 63.6023 21.9034 63.9318 22.6875C64.267 23.4659 64.7358 24.054 65.3381 24.4517C65.946 24.8437 66.6648 25.0398 67.4943 25.0398C67.9602 25.0398 68.3835 24.9801 68.7642 24.8608C69.1506 24.7415 69.4886 24.5682 69.7784 24.3409C70.0739 24.108 70.3153 23.8267 70.5028 23.4972C70.696 23.1619 70.8295 22.7841 70.9034 22.3636L75.1648 22.3892C75.0909 23.1619 74.8665 23.9233 74.4915 24.6733C74.1222 25.4233 73.6136 26.108 72.9659 26.7273C72.3182 27.3409 71.5284 27.8295 70.5966 28.1932C69.6705 28.5568 68.608 28.7386 67.4091 28.7386C65.8295 28.7386 64.4148 28.392 63.1648 27.6989C61.9205 27 60.9375 25.983 60.2159 24.6477C59.4943 23.3125 59.1335 21.6875 59.1335 19.7727C59.1335 17.8523 59.5 16.2244 60.233 14.8892C60.9659 13.554 61.9574 12.5398 63.2074 11.8466C64.4574 11.1534 65.858 10.8068 67.4091 10.8068C68.4659 10.8068 69.4432 10.9545 70.3409 11.25C71.2386 11.5398 72.0284 11.9659 72.7102 12.5284C73.392 13.0852 73.946 13.7699 74.3722 14.5824C74.7983 15.3949 75.0625 16.3239 75.1648 17.3693ZM77.5788 28.5V15.4091H81.6271V17.7955H81.7635C82.0021 16.9318 82.3913 16.2898 82.9311 15.8693C83.4709 15.4432 84.0987 15.2301 84.8146 15.2301C85.0078 15.2301 85.2067 15.2443 85.4112 15.2727C85.6158 15.2955 85.8061 15.3324 85.9822 15.3835V19.0057C85.7834 18.9375 85.522 18.8835 85.1982 18.8438C84.88 18.804 84.5959 18.7841 84.3459 18.7841C83.8516 18.7841 83.4055 18.8949 83.0078 19.1165C82.6158 19.3324 82.3061 19.6364 82.0788 20.0284C81.8572 20.4148 81.7464 20.8693 81.7464 21.392V28.5H77.5788ZM93.12 28.7472C91.7507 28.7472 90.5689 28.4773 89.5746 27.9375C88.5859 27.392 87.8246 26.6165 87.2905 25.6108C86.7621 24.5994 86.4979 23.3977 86.4979 22.0057C86.4979 20.6534 86.7649 19.4716 87.299 18.4602C87.8331 17.4432 88.5859 16.6534 89.5575 16.0909C90.5291 15.5227 91.674 15.2386 92.9922 15.2386C93.924 15.2386 94.7763 15.3835 95.549 15.6733C96.3217 15.9631 96.9893 16.392 97.5518 16.9602C98.1143 17.5284 98.5518 18.2301 98.8643 19.0653C99.1768 19.8949 99.3331 20.8466 99.3331 21.9205V22.9602H87.9553V20.5398H95.4553C95.4496 20.0966 95.3445 19.7017 95.1399 19.3551C94.9354 19.0085 94.6541 18.7386 94.2962 18.5455C93.9439 18.3466 93.5376 18.2472 93.0774 18.2472C92.6115 18.2472 92.1939 18.3523 91.8246 18.5625C91.4553 18.767 91.1626 19.0483 90.9467 19.4062C90.7308 19.7585 90.6172 20.1591 90.6058 20.608V23.071C90.6058 23.6051 90.7109 24.0739 90.9212 24.4773C91.1314 24.875 91.4297 25.1847 91.8161 25.4062C92.2024 25.6278 92.6626 25.7386 93.1967 25.7386C93.5661 25.7386 93.9013 25.6875 94.2024 25.5852C94.5036 25.483 94.7621 25.3324 94.978 25.1335C95.1939 24.9347 95.3558 24.6903 95.4638 24.4006L99.2905 24.5114C99.1314 25.3693 98.782 26.1165 98.2422 26.7528C97.7081 27.3835 97.0064 27.875 96.1371 28.2273C95.2678 28.5739 94.2621 28.7472 93.12 28.7472ZM106.243 28.6875C105.277 28.6875 104.399 28.4375 103.609 27.9375C102.82 27.4375 102.189 26.6875 101.717 25.6875C101.246 24.6875 101.01 23.446 101.01 21.9631C101.01 20.4233 101.254 19.1562 101.743 18.1619C102.232 17.1676 102.871 16.4318 103.661 15.9545C104.456 15.4773 105.311 15.2386 106.226 15.2386C106.913 15.2386 107.501 15.358 107.99 15.5966C108.479 15.8295 108.882 16.1307 109.2 16.5C109.518 16.8693 109.76 17.2528 109.925 17.6506H110.01V11.0455H114.178V28.5H110.053V26.3778H109.925C109.749 26.7812 109.499 27.1591 109.175 27.5114C108.851 27.8636 108.445 28.1477 107.956 28.3636C107.473 28.5795 106.902 28.6875 106.243 28.6875ZM107.692 25.4403C108.197 25.4403 108.629 25.2983 108.987 25.0142C109.345 24.7244 109.621 24.3182 109.814 23.7955C110.007 23.2727 110.104 22.6591 110.104 21.9545C110.104 21.2386 110.007 20.6222 109.814 20.1051C109.626 19.5881 109.351 19.1903 108.987 18.9119C108.629 18.6335 108.197 18.4943 107.692 18.4943C107.175 18.4943 106.737 18.6364 106.379 18.9205C106.021 19.2045 105.749 19.6051 105.561 20.1222C105.379 20.6392 105.288 21.25 105.288 21.9545C105.288 22.6591 105.382 23.2727 105.57 23.7955C105.757 24.3182 106.027 24.7244 106.379 25.0142C106.737 25.2983 107.175 25.4403 107.692 25.4403ZM116.813 28.5V15.4091H120.981V28.5H116.813ZM118.901 13.8835C118.316 13.8835 117.813 13.6903 117.393 13.304C116.972 12.9119 116.762 12.4403 116.762 11.8892C116.762 11.3437 116.972 10.8778 117.393 10.4915C117.813 10.0994 118.316 9.90341 118.901 9.90341C119.492 9.90341 119.995 10.0994 120.41 10.4915C120.83 10.8778 121.04 11.3437 121.04 11.8892C121.04 12.4403 120.83 12.9119 120.41 13.304C119.995 13.6903 119.492 13.8835 118.901 13.8835ZM135.062 19.4062L131.236 19.5085C131.196 19.2358 131.088 18.9943 130.912 18.7841C130.736 18.5682 130.506 18.4006 130.222 18.2812C129.943 18.1562 129.619 18.0938 129.25 18.0938C128.767 18.0938 128.355 18.1903 128.014 18.3835C127.679 18.5767 127.514 18.8381 127.52 19.1676C127.514 19.4233 127.616 19.6449 127.827 19.8324C128.043 20.0199 128.426 20.1705 128.977 20.2841L131.5 20.7614C132.807 21.0114 133.778 21.4261 134.415 22.0057C135.057 22.5852 135.381 23.3523 135.386 24.3068C135.381 25.2045 135.114 25.9858 134.585 26.6506C134.062 27.3153 133.347 27.8324 132.438 28.2017C131.528 28.5653 130.489 28.7472 129.318 28.7472C127.449 28.7472 125.974 28.3636 124.895 27.5966C123.821 26.8239 123.207 25.7898 123.054 24.4943L127.17 24.392C127.261 24.8693 127.497 25.233 127.878 25.483C128.259 25.733 128.744 25.858 129.335 25.858C129.869 25.858 130.304 25.7585 130.639 25.5597C130.974 25.3608 131.145 25.0966 131.151 24.767C131.145 24.4716 131.014 24.2358 130.759 24.0597C130.503 23.8778 130.102 23.7358 129.557 23.6335L127.273 23.1989C125.96 22.9602 124.983 22.5199 124.341 21.8778C123.699 21.2301 123.381 20.4062 123.386 19.4062C123.381 18.5312 123.614 17.7841 124.085 17.1648C124.557 16.5398 125.227 16.0625 126.097 15.733C126.966 15.4034 127.991 15.2386 129.173 15.2386C130.946 15.2386 132.344 15.6108 133.366 16.3551C134.389 17.0937 134.955 18.1108 135.062 19.4062ZM143.549 28.7472C142.168 28.7472 140.984 28.4631 139.995 27.8949C139.012 27.3267 138.256 26.5369 137.728 25.5256C137.2 24.5085 136.935 23.3324 136.935 21.9972C136.935 20.6562 137.2 19.4801 137.728 18.4688C138.262 17.4517 139.021 16.6591 140.004 16.0909C140.992 15.5227 142.171 15.2386 143.54 15.2386C144.751 15.2386 145.805 15.4574 146.702 15.8949C147.606 16.3324 148.31 16.9517 148.816 17.7528C149.327 18.5483 149.597 19.483 149.626 20.5568H145.731C145.651 19.8864 145.424 19.3608 145.049 18.9801C144.68 18.5994 144.197 18.4091 143.6 18.4091C143.117 18.4091 142.694 18.5455 142.33 18.8182C141.967 19.0852 141.683 19.483 141.478 20.0114C141.279 20.5341 141.18 21.1818 141.18 21.9545C141.18 22.7273 141.279 23.3807 141.478 23.9148C141.683 24.4432 141.967 24.8437 142.33 25.1165C142.694 25.3835 143.117 25.517 143.6 25.517C143.987 25.517 144.327 25.4347 144.623 25.2699C144.924 25.1051 145.171 24.8636 145.364 24.5455C145.558 24.2216 145.68 23.8295 145.731 23.3693H149.626C149.586 24.4489 149.316 25.392 148.816 26.1989C148.322 27.0057 147.626 27.6335 146.728 28.0824C145.836 28.5256 144.776 28.7472 143.549 28.7472ZM155.926 21.0341V28.5H151.759V11.0455H155.79V17.8125H155.935C156.23 17.0057 156.713 16.375 157.384 15.9205C158.06 15.4659 158.886 15.2386 159.864 15.2386C160.784 15.2386 161.585 15.4432 162.267 15.8523C162.949 16.2557 163.477 16.8267 163.852 17.5653C164.233 18.304 164.42 19.1676 164.415 20.1562V28.5H160.247V20.9744C160.253 20.2472 160.071 19.679 159.702 19.2699C159.332 18.8608 158.813 18.6562 158.142 18.6562C157.705 18.6562 157.318 18.7528 156.983 18.946C156.653 19.1335 156.395 19.4034 156.207 19.7557C156.026 20.108 155.932 20.5341 155.926 21.0341ZM173.127 28.7472C171.752 28.7472 170.57 28.4659 169.582 27.9034C168.599 27.3352 167.84 26.5455 167.306 25.5341C166.778 24.517 166.513 23.3381 166.513 21.9972C166.513 20.6506 166.778 19.4716 167.306 18.4602C167.84 17.4432 168.599 16.6534 169.582 16.0909C170.57 15.5227 171.752 15.2386 173.127 15.2386C174.502 15.2386 175.681 15.5227 176.664 16.0909C177.653 16.6534 178.411 17.4432 178.94 18.4602C179.474 19.4716 179.741 20.6506 179.741 21.9972C179.741 23.3381 179.474 24.517 178.94 25.5341C178.411 26.5455 177.653 27.3352 176.664 27.9034C175.681 28.4659 174.502 28.7472 173.127 28.7472ZM173.153 25.6023C173.653 25.6023 174.076 25.4489 174.423 25.142C174.769 24.8352 175.033 24.4091 175.215 23.8636C175.403 23.3182 175.496 22.6875 175.496 21.9716C175.496 21.2443 175.403 20.608 175.215 20.0625C175.033 19.517 174.769 19.0909 174.423 18.7841C174.076 18.4773 173.653 18.3239 173.153 18.3239C172.636 18.3239 172.198 18.4773 171.84 18.7841C171.488 19.0909 171.218 19.517 171.031 20.0625C170.849 20.608 170.758 21.2443 170.758 21.9716C170.758 22.6875 170.849 23.3182 171.031 23.8636C171.218 24.4091 171.488 24.8352 171.84 25.142C172.198 25.4489 172.636 25.6023 173.153 25.6023ZM187.987 28.7472C186.612 28.7472 185.43 28.4659 184.441 27.9034C183.458 27.3352 182.7 26.5455 182.165 25.5341C181.637 24.517 181.373 23.3381 181.373 21.9972C181.373 20.6506 181.637 19.4716 182.165 18.4602C182.7 17.4432 183.458 16.6534 184.441 16.0909C185.43 15.5227 186.612 15.2386 187.987 15.2386C189.362 15.2386 190.54 15.5227 191.523 16.0909C192.512 16.6534 193.271 17.4432 193.799 18.4602C194.333 19.4716 194.6 20.6506 194.6 21.9972C194.6 23.3381 194.333 24.517 193.799 25.5341C193.271 26.5455 192.512 27.3352 191.523 27.9034C190.54 28.4659 189.362 28.7472 187.987 28.7472ZM188.012 25.6023C188.512 25.6023 188.935 25.4489 189.282 25.142C189.629 24.8352 189.893 24.4091 190.075 23.8636C190.262 23.3182 190.356 22.6875 190.356 21.9716C190.356 21.2443 190.262 20.608 190.075 20.0625C189.893 19.517 189.629 19.0909 189.282 18.7841C188.935 18.4773 188.512 18.3239 188.012 18.3239C187.495 18.3239 187.058 18.4773 186.7 18.7841C186.347 19.0909 186.077 19.517 185.89 20.0625C185.708 20.608 185.617 21.2443 185.617 21.9716C185.617 22.6875 185.708 23.3182 185.89 23.8636C186.077 24.4091 186.347 24.8352 186.7 25.142C187.058 25.4489 187.495 25.6023 188.012 25.6023ZM200.903 11.0455V28.5H196.735V11.0455H200.903Z" fill="#030F4B"/>
</svg>
