<svg width="86" height="86" viewBox="0 0 86 86" fill="none" xmlns="http://www.w3.org/2000/svg">
<rect width="86" height="86" rx="8" fill="#FCFCFF"/>
<path fill-rule="evenodd" clip-rule="evenodd" d="M26.6364 43C26.6364 33.9626 33.9626 26.6364 43 26.6364C52.0374 26.6364 59.3636 33.9626 59.3636 43C59.3636 52.0374 52.0374 59.3636 43 59.3636C33.9626 59.3636 26.6364 52.0374 26.6364 43ZM43 23C31.9543 23 23 31.9543 23 43C23 54.0457 31.9543 63 43 63C54.0457 63 63 54.0457 63 43C63 31.9543 54.0457 23 43 23ZM34.6364 45.1818C35.4372 44.5812 36.5721 44.7411 37.1761 45.5379L37.1845 45.5487C37.1954 45.5623 37.2159 45.5879 37.246 45.6238C37.3063 45.6956 37.404 45.8076 37.5371 45.9465C37.805 46.226 38.2074 46.6051 38.7285 46.9841C39.7777 47.7472 41.2282 48.4545 43 48.4545C44.7718 48.4545 46.2223 47.7472 47.2715 46.9841C47.7926 46.6051 48.195 46.226 48.4629 45.9465C48.596 45.8076 48.6937 45.6956 48.754 45.6238C48.7841 45.5879 48.8046 45.5623 48.8155 45.5487L48.8239 45.5379C49.4279 44.7411 50.5628 44.5812 51.3636 45.1818C52.167 45.7843 52.3298 46.924 51.7273 47.7273L50.2727 46.6364C51.7273 47.7273 51.7268 47.7279 51.7264 47.7285L51.7254 47.7297L51.7233 47.7325L51.7184 47.7391L51.7053 47.7562L51.6665 47.8058C51.6352 47.8454 51.5927 47.8979 51.5393 47.9615C51.4327 48.0885 51.2818 48.2606 51.0883 48.4626C50.7027 48.8649 50.1392 49.3949 49.4103 49.925C47.9595 50.9801 45.7737 52.0909 43 52.0909C40.2263 52.0909 38.0405 50.9801 36.5897 49.925C35.8608 49.3949 35.2973 48.8649 34.9117 48.4626C34.7182 48.2606 34.5673 48.0885 34.4607 47.9615C34.4073 47.8979 34.3648 47.8454 34.3335 47.8058L34.2947 47.7562L34.2816 47.7391L34.2767 47.7325L34.2746 47.7297L34.2736 47.7285C34.2732 47.7279 34.2727 47.7273 35.7273 46.6364L34.2727 47.7273C33.6702 46.924 33.833 45.7843 34.6364 45.1818ZM35.7273 37.5455C35.7273 36.5413 36.5413 35.7273 37.5455 35.7273H37.5636C38.5678 35.7273 39.3818 36.5413 39.3818 37.5455C39.3818 38.5496 38.5678 39.3636 37.5636 39.3636H37.5455C36.5413 39.3636 35.7273 38.5496 35.7273 37.5455ZM48.4545 35.7273C47.4504 35.7273 46.6364 36.5413 46.6364 37.5455C46.6364 38.5496 47.4504 39.3636 48.4545 39.3636H48.4727C49.4769 39.3636 50.2909 38.5496 50.2909 37.5455C50.2909 36.5413 49.4769 35.7273 48.4727 35.7273H48.4545Z" fill="#335DFF"/>
</svg>
